<svg width="1300" height="345" viewBox="0 0 1300 345" fill="none" xmlns="http://www.w3.org/2000/svg">
<path d="M4.74471 200.217C4.02279 200.217 3.43066 200.806 3.43066 201.505C3.43066 202.213 4.02281 202.803 4.74471 202.803H568.824C569.554 202.803 570.185 202.213 570.185 201.505C570.185 200.805 569.554 200.219 568.824 200.219L4.74471 200.217Z" fill="#ADADAD"/>
<path d="M5.05876 9.1537C4.55268 9.1537 4.4364 11.0119 4.94248 11.1058C5.00202 11.1058 5.03551 11.117 5.03551 11.117C10.0815 11.9547 13.202 12.2802 16.2457 14.1072C19.3641 15.9559 19.1064 17.4711 19.1064 21.7465L19.0831 153.415C19.0831 157.698 19.3366 159.215 16.2108 161.1C13.1742 162.941 10.043 163.237 5.01193 164.067H4.93053C4.417 164.205 4.51329 166.031 5.01193 166.031H114.821C161.12 166.031 180.583 148.22 180.583 120.388C180.583 99.8432 170.687 87.2876 151.173 82.5427C150.846 82.456 150.816 82.0634 151.173 81.9334C163.61 78.1637 175.059 69.4164 175.059 48.0262C175.059 18.9598 154.852 9.16504 110.762 9.16504L5.0548 9.14771L5.05876 9.1537ZM259.758 9.1537L180.457 9.16498C179.988 9.16498 180.023 10.946 180.492 11.0832C180.529 11.1049 180.585 11.1058 180.585 11.1058C183.964 11.4741 185.798 11.2222 189.772 13.1143C190.248 13.3309 191.363 14.0468 191.772 14.4006C194.295 16.4732 195.858 18.3495 198.924 22.762L254.812 103.1V153.414C254.812 157.704 255.101 159.213 251.975 161.099C248.939 162.94 245.816 163.236 240.799 164.066C240.799 164.066 240.725 164.074 240.695 164.089C240.159 164.211 240.256 166.029 240.799 166.029H326.876C327.352 166.029 327.48 164.211 327.004 164.089C326.944 164.074 326.876 164.066 326.876 164.066C321.882 163.236 318.744 162.94 315.677 161.099C312.559 159.214 312.805 157.712 312.805 153.437V103.461L368.809 22.7591C371.876 18.3468 373.863 16.0506 376.356 14.0141C376.803 13.6603 377.847 12.9896 378.45 12.5924C380.754 11.4702 381.665 11.1723 384.487 11.1001C384.487 11.1001 384.55 11.0992 384.58 11.0775C385.116 11.0486 385.28 9.15932 384.685 9.15932L309.182 9.14805C308.55 9.14805 308.652 11.0712 309.217 11.1001C309.247 11.1001 309.311 11.1227 309.311 11.1227C312.942 11.1227 317.463 11.1561 316.741 16.2906C316.332 21.2013 294.541 51.7721 286.809 63.3774C285.707 65.0456 284.816 66.73 284.436 68.8387C284.191 66.7516 282.826 64.6678 281.948 63.4113C271.141 47.7549 252.644 22.4674 252.108 16.2569C251.669 10.9707 255.901 11.1002 259.563 11.1002C259.563 11.1002 259.589 11.0776 259.656 11.0776C260.15 11.0703 260.352 9.14799 259.757 9.14799L259.758 9.1537ZM505.336 9.1537C504.859 9.1537 504.742 11.0078 505.277 11.0945L505.336 11.1171C510.456 11.7309 512.828 12.2874 515.895 14.1072C519.028 15.9632 518.732 17.4608 518.732 21.7575V100.888C518.732 118.913 508.118 132.798 486.973 132.798C465.8 132.798 455.122 118.913 455.122 100.888V21.769C455.122 17.4939 454.928 15.9635 457.994 14.1072C461.031 12.2874 463.589 11.8392 468.553 11.1171C468.553 11.1171 468.593 11.0945 468.623 11.0945C469.159 11.0078 469.059 9.17629 468.553 9.17629H392.104C391.531 9.17629 391.658 11.0078 392.104 11.0945C392.164 11.0945 392.255 11.1171 392.255 11.1171C395.039 11.2904 396.965 11.466 398.64 12.8886C401.207 14.9467 401.652 17.4639 401.652 21.7463L401.616 99.5483C401.616 137.043 422.758 168.898 486.973 168.898C551.103 168.898 572.234 137.043 572.234 99.5483V21.7463C572.234 17.4639 572.051 15.9632 575.118 14.107C578.214 12.2872 581.311 11.9618 586.305 11.1168C586.305 11.1168 586.354 11.0943 586.421 11.0943C586.934 11.0076 586.84 9.17605 586.305 9.17605L505.336 9.1537ZM70.2965 38.435C70.2965 38.435 72.2785 38.751 74.1689 38.751H95.4151C111.603 38.751 121.068 41.1996 121.068 55.4622C121.068 64.6914 115.175 72.9748 96.0778 72.9748H74.1689C72.2785 72.9748 70.3547 73.2117 70.3547 73.2117C70.3547 73.2117 70.6105 71.4501 70.6105 69.522V42.1928C70.6105 40.0624 70.2965 38.435 70.2965 38.435ZM70.3548 96.9873C70.3548 96.9873 72.2671 97.2469 74.1575 97.2469H92.1474C106.482 97.2469 123.988 97.2544 123.988 116.486C123.988 130.727 111.445 135.758 94.5433 135.758H74.1581C72.2379 135.758 70.4019 136.017 70.4019 136.017C70.4019 136.017 70.6113 134.143 70.6113 132.316V100.677C70.6113 98.5609 70.3548 96.9873 70.3548 96.9873ZM526.453 236.196C494.398 236.196 473.077 261.47 473.077 287.626C473.077 315.191 494.395 336.665 524.233 336.665C556.377 336.665 577.551 311.387 577.551 285.223C577.551 257.63 556.379 236.196 526.453 236.196ZM254.851 236.624C253.594 236.624 252.341 236.888 252.199 237.426C248.277 249.291 243.101 262.574 238.233 275.327L229.918 297.556C218.606 327.533 215.805 329.656 214.22 330.877C211.883 332.408 209.04 333.317 204.359 333.743C203.57 333.945 203.882 335.729 204.359 335.729H236.489C236.973 335.729 237.122 333.945 236.489 333.743C229.761 333.187 227.581 331.784 227.581 329.083C227.581 325.833 229.254 318.378 236.652 298.764H269.131C278.077 320.667 280.109 327.532 280.109 330.11C280.109 332.407 277.139 333.317 272.271 333.743C271.639 333.946 271.795 335.729 272.271 335.729H306.646C307.122 335.729 307.242 333.946 306.646 333.743C302.255 333.317 299.896 332.847 297.238 331.193C295.05 329.814 292.972 327.533 280.737 297.556L271.794 275.327C266.331 261.469 262.252 250.641 257.548 237.426C257.374 236.888 256.108 236.624 254.851 236.624ZM4.63484 237.132C4.14364 237.132 4.15015 238.933 4.79765 239.084C10.9005 239.727 14.9926 240.599 16.8681 241.668C18.7734 242.585 20.1591 245.336 20.1591 275.328V297.534C20.1591 327.496 18.7734 330.097 16.8681 331.137C14.9926 332.227 10.9005 333.158 4.79765 333.743C4.15015 333.881 4.14366 335.729 4.63484 335.729H46.9873C47.4561 335.729 47.6092 333.881 46.8128 333.743C40.7249 333.158 36.7923 332.227 34.9168 331.137C32.8627 330.097 31.4514 327.496 31.4514 297.534V275.328C31.4514 245.337 32.8627 242.586 34.9168 241.668C36.7923 240.599 40.7252 239.727 46.8128 239.084C47.6092 238.933 47.4562 237.132 46.9873 237.132H4.63484ZM82.4414 237.132C81.9725 237.132 81.8079 238.94 82.6042 239.084C88.6999 239.727 91.3851 240.599 93.2678 241.668C95.3293 242.585 96.5587 245.336 96.5587 275.328V297.557C96.5587 327.534 95.3293 330.103 93.2678 331.193C91.3848 332.255 88.6995 333.195 82.6042 333.744C81.8079 333.946 81.9725 335.73 82.4414 335.73C89.348 335.73 96.5607 335.459 102.374 335.459C108.171 335.459 119.303 335.73 126.225 335.73C146.312 335.73 158.242 331.195 169.019 320.666C178.441 311.387 183.939 298.465 183.939 285.235C183.939 257.635 161.205 237.133 129.678 237.133C122.593 237.133 108.172 237.426 102.374 237.426C96.5616 237.426 89.348 237.132 82.4414 237.132ZM329.692 237.132C329.186 237.132 329.055 238.947 329.843 239.084C335.946 239.727 338.629 240.599 340.519 241.668C342.543 242.585 343.822 245.336 343.822 275.328V297.557C343.822 327.534 342.543 330.103 340.519 331.193C338.629 332.248 335.946 333.188 329.843 333.744C329.055 333.946 329.186 335.73 329.692 335.73H369.545C370.013 335.73 370.012 333.946 369.231 333.744C363.091 333.188 360.4 332.248 358.532 331.193C356.671 330.103 355.287 327.533 355.287 297.557V288.101H414.537V297.557C414.537 327.534 413.151 330.103 411.246 331.193C409.385 332.248 406.738 333.188 400.605 333.744C399.817 333.946 399.822 335.73 400.454 335.73H440.143C440.776 335.73 440.775 333.946 440.016 333.744C433.853 333.188 431.229 332.248 429.294 331.193C427.433 330.103 426.014 327.533 426.014 297.557V275.328C426.014 245.337 427.433 242.586 429.294 241.668C431.229 240.599 433.853 239.727 440.016 239.084C440.775 238.947 440.776 237.132 440.143 237.132H400.454C399.822 237.132 399.817 238.947 400.605 239.084C406.738 239.727 409.385 240.599 411.246 241.668C413.151 242.585 414.537 245.336 414.537 275.328V282.447H355.287V275.328C355.287 245.337 356.671 242.586 358.532 241.668C360.4 240.599 363.09 239.727 369.231 239.084C370.012 238.947 370.013 237.132 369.545 237.132H329.692ZM523.441 241.826C548.544 241.826 564.502 264.821 564.502 289.613C564.502 309.27 555.273 331.035 527.371 331.035C502.246 331.035 486.124 308.08 486.124 283.237C486.124 263.609 495.353 241.826 523.441 241.826ZM124.816 242.142C154.772 242.142 170.924 264.687 170.924 287.976C170.924 316.588 156.786 330.708 126.072 330.708C117.885 330.708 114.313 329.645 111.477 326.792C109.445 324.662 108.035 317.047 108.035 297.557V274.854C108.035 252.647 109.445 245.932 110.361 244.704C111.477 243.375 115.394 242.142 124.816 242.142ZM252.803 255.841L266.769 292.501H239.022L252.803 255.841Z" fill="#0076C6"/>
<path d="M914.71 275.793L893.84 4.02271H1123.16L1102.27 275.752L1008.36 305.977L914.71 275.793Z" fill="#E44D26"/>
<path d="M1008.5 282.875L1084.38 258.448L1102.24 26.2434H1008.5V282.875Z" fill="#F16529"/>
<path d="M1008.5 127.039H970.511L967.887 92.9055H1008.5V59.5757H936.512L937.201 68.5172L944.255 160.372H1008.5V127.039ZM1008.5 213.604L1008.37 213.646L976.402 203.619L974.359 177.039H945.538L949.56 229.373L1008.37 248.327L1008.5 248.286V213.604Z" fill="#EBEBEB"/>
<path d="M1008.4 127.039V160.372H1043.75L1040.42 203.6L1008.4 213.634V248.312L1067.25 229.373L1067.69 223.742L1074.43 135.991L1075.13 127.039H1067.4H1008.4ZM1008.4 59.5757V92.9055H1077.74L1078.32 85.4171L1079.63 68.5172L1080.32 59.5757H1008.4Z" fill="white"/>
<path d="M1073.1 311.392L1052.2 38.2744H1281.8L1260.88 311.351L1166.86 341.728L1073.1 311.392Z" fill="#1572B6"/>
<path d="M1167 318.509L1242.98 293.961L1260.85 60.604H1167V318.509Z" fill="#33A9DC"/>
<path d="M1167 159.555H1205.04L1207.66 125.254H1167V91.7566H1239.08L1238.39 100.744L1231.32 193.052H1167V159.555Z" fill="white"/>
<path d="M1167.17 246.548L1167.05 246.592L1135.04 236.519L1132.99 209.804H1104.14L1108.17 262.4L1167.04 281.443L1167.17 281.399V246.548Z" fill="#EBEBEB"/>
<path d="M1202.59 191.635L1199.13 236.493L1167.07 246.577V281.428L1226 262.397L1226.43 256.737L1231.43 191.635H1202.59Z" fill="white"/>
<path d="M1167.1 91.7566V125.254H1097.67L1097.1 117.726L1095.79 100.744L1095.1 91.7566H1167.1ZM1167 159.559V193.056H1135.4L1134.82 185.529L1133.51 168.547L1132.82 159.559H1167Z" fill="#EBEBEB"/>
<mask id="mask0_204_2" style="mask-type:luminance" maskUnits="userSpaceOnUse" x="625" y="64" width="232" height="232">
<path d="M856.849 64H625V295.848H856.849V64Z" fill="white"/>
<path d="M724.879 287.285V69.928H761.762V287.285H724.879ZM634.641 197.049V160.164H852V197.049H634.641Z" fill="black"/>
</mask>
<g mask="url(#mask0_204_2)">
<path d="M724.879 287.285H720.048V292.115H724.879V287.285ZM724.879 69.9281V65.0979H720.048V69.9281H724.879ZM761.762 69.9281H766.592V65.0979H761.762V69.9281ZM761.762 287.285V292.115H766.592V287.285H761.762ZM634.641 197.049H629.811V201.879H634.641V197.049ZM634.641 160.164V155.334H629.811V160.164H634.641ZM852 160.164H856.83V155.334H852V160.164ZM852 197.049V201.879H856.83V197.049H852ZM729.709 287.285V69.9281H720.048V287.285H729.709ZM724.879 74.7582H761.762V65.0979H724.879V74.7582ZM756.932 69.9281V287.285H766.592V69.9281H756.932ZM761.762 282.455H724.879V292.115H761.762V282.455ZM639.471 197.049V160.164H629.811V197.049H639.471ZM634.641 164.994H852V155.334H634.641V164.994ZM847.169 160.164V197.049H856.83V160.164H847.169ZM852 192.219H634.641V201.879H852V192.219Z" fill="black"/>
</g>
</svg>
