<svg width="265" height="128" viewBox="0 0 265 128" fill="none" xmlns="http://www.w3.org/2000/svg">
<mask id="path-1-outside-1_81_11" maskUnits="userSpaceOnUse" x="129" y="42" width="48" height="48" fill="black">
<rect fill="white" x="129" y="42" width="48" height="48"/>
<path d="M149.678 88.2273V43.2273H157.314V88.2273H149.678ZM130.996 69.5455V61.9091H175.996V69.5455H130.996Z"/>
</mask>
<path d="M149.678 88.2273H148.678V89.2273H149.678V88.2273ZM149.678 43.2273V42.2273H148.678V43.2273H149.678ZM157.314 43.2273H158.314V42.2273H157.314V43.2273ZM157.314 88.2273V89.2273H158.314V88.2273H157.314ZM130.996 69.5455H129.996V70.5455H130.996V69.5455ZM130.996 61.9091V60.9091H129.996V61.9091H130.996ZM175.996 61.9091H176.996V60.9091H175.996V61.9091ZM175.996 69.5455V70.5455H176.996V69.5455H175.996ZM150.678 88.2273V43.2273H148.678V88.2273H150.678ZM149.678 44.2273H157.314V42.2273H149.678V44.2273ZM156.314 43.2273V88.2273H158.314V43.2273H156.314ZM157.314 87.2273H149.678V89.2273H157.314V87.2273ZM131.996 69.5455V61.9091H129.996V69.5455H131.996ZM130.996 62.9091H175.996V60.9091H130.996V62.9091ZM174.996 61.9091V69.5455H176.996V61.9091H174.996ZM175.996 68.5455H130.996V70.5455H175.996V68.5455Z" fill="black" mask="url(#path-1-outside-1_81_11)"/>
<path d="M224.619 31.655C221.981 31.6675 219.462 31.8919 217.244 32.2844C210.713 33.4382 209.528 35.8532 209.528 40.3075V46.1894H224.961V48.15H203.736C199.251 48.15 195.323 50.8457 194.094 55.9757C192.677 61.8538 192.614 65.5225 194.094 71.6607C195.191 76.23 197.811 79.485 202.297 79.485H207.604V72.4338C207.604 67.3394 212.011 62.8463 217.245 62.8463H232.661C236.952 62.8463 240.377 59.3125 240.377 55.0038V40.3082C240.377 36.125 236.848 32.9832 232.661 32.285C230.008 31.8438 227.258 31.6432 224.619 31.655ZM216.273 36.3857C217.867 36.3857 219.169 37.7088 219.169 39.3363C219.169 40.9569 217.868 42.2675 216.273 42.2675C214.673 42.2675 213.378 40.9569 213.378 39.3363C213.377 37.7088 214.673 36.3857 216.273 36.3857Z" fill="url(#paint0_linear_81_11)"/>
<path d="M242.301 48.15V55.0038C242.301 60.3163 237.796 64.7882 232.66 64.7882H217.244C213.022 64.7882 209.528 68.4025 209.528 72.6313V87.3282C209.528 91.51 213.164 93.9707 217.244 95.17C222.129 96.6057 226.814 96.8657 232.66 95.17C236.545 94.0444 240.376 91.7807 240.376 87.3282V81.4457H224.961V79.4844H248.094C252.579 79.4844 254.251 76.3563 255.811 71.66C257.422 66.8257 257.353 62.1763 255.811 55.975C254.702 51.5094 252.586 48.1494 248.094 48.1494L242.301 48.15ZM233.631 85.3669C235.231 85.3669 236.527 86.6775 236.527 88.2994C236.527 89.9257 235.231 91.2488 233.631 91.2488C232.037 91.2488 230.735 89.9257 230.735 88.2994C230.735 86.6775 232.037 85.3669 233.631 85.3669Z" fill="url(#paint1_linear_81_11)"/>
<path opacity="0.444" d="M245.818 98.7482C245.818 100.963 236.558 102.758 225.136 102.758C213.714 102.758 204.454 100.963 204.454 98.7482C204.454 96.5332 213.713 94.7375 225.136 94.7375C236.558 94.7375 245.818 96.5325 245.818 98.7482Z" fill="url(#paint2_radial_81_11)"/>
<g clip-path="url(#clip0_81_11)">
<path d="M0.982253 69.1934C0.832793 69.1934 0.710205 69.3154 0.710205 69.4601C0.710205 69.6066 0.832797 69.7287 0.982253 69.7287H117.764C117.915 69.7287 118.046 69.6066 118.046 69.4601C118.046 69.3151 117.915 69.1938 117.764 69.1938L0.982253 69.1934Z" fill="#ADADAD"/>
<path d="M1.04726 29.6372C0.942482 29.6372 0.918409 30.0219 1.02318 30.0414C1.03551 30.0414 1.04244 30.0437 1.04244 30.0437C2.08712 30.2171 2.73316 30.2845 3.36329 30.6628C4.0089 31.0455 3.95555 31.3592 3.95555 32.2443L3.95073 59.5039C3.95073 60.3905 4.00322 60.7045 3.35607 61.0948C2.72742 61.4761 2.07916 61.5373 1.03756 61.7092H1.02071C0.914393 61.7376 0.934327 62.1157 1.03756 62.1157H23.7715C33.3569 62.1157 37.3862 58.4283 37.3862 52.6663C37.3862 48.4128 35.3375 45.8134 31.2975 44.831C31.2297 44.8131 31.2235 44.7318 31.2975 44.7049C33.8723 43.9245 36.2426 42.1135 36.2426 37.685C36.2426 31.6674 32.0592 29.6396 22.9311 29.6396L1.04644 29.636L1.04726 29.6372ZM53.778 29.6372L37.3602 29.6396C37.2631 29.6396 37.2703 30.0083 37.3674 30.0367C37.3751 30.0412 37.3867 30.0414 37.3867 30.0414C38.0862 30.1176 38.4659 30.0655 39.2887 30.4572C39.3873 30.502 39.6181 30.6502 39.7028 30.7235C40.2251 31.1526 40.5486 31.541 41.1835 32.4546L52.7541 49.0871V59.5037C52.7541 60.3918 52.8138 60.7043 52.1666 61.0946C51.538 61.4758 50.8915 61.537 49.8529 61.7089C49.8529 61.7089 49.8374 61.7106 49.8313 61.7136C49.7203 61.739 49.7405 62.1154 49.8529 62.1154H67.6735C67.7721 62.1154 67.7986 61.739 67.7 61.7136C67.6877 61.7106 67.6735 61.7089 67.6735 61.7089C66.6396 61.537 65.9898 61.4758 65.355 61.0946C64.7094 60.7043 64.7603 60.3935 64.7603 59.5083V49.1619L76.355 32.454C76.9898 31.5405 77.4013 31.0651 77.9175 30.6435C78.0099 30.5702 78.226 30.4314 78.3508 30.3491C78.8279 30.1168 79.0165 30.0551 79.6008 30.0402C79.6008 30.0402 79.6139 30.04 79.62 30.0355C79.731 30.0295 79.765 29.6384 79.6417 29.6384L64.0103 29.6361C63.8794 29.6361 63.9005 30.0342 64.0176 30.0402C64.0238 30.0402 64.0369 30.0449 64.0369 30.0449C64.7888 30.0449 65.7248 30.0518 65.5752 31.1148C65.4905 32.1314 60.9792 38.4606 59.3783 40.8632C59.1503 41.2086 58.9657 41.5573 58.8872 41.9939C58.8363 41.5618 58.5538 41.1304 58.3719 40.8702C56.1347 37.6289 52.3052 32.3936 52.1942 31.1078C52.1033 30.0134 52.9794 30.0402 53.7375 30.0402C53.7375 30.0402 53.7429 30.0355 53.7568 30.0355C53.8591 30.034 53.901 29.636 53.7777 29.636L53.778 29.6372ZM104.62 29.6372C104.522 29.6372 104.497 30.0211 104.608 30.039L104.62 30.0437C105.68 30.1708 106.171 30.286 106.806 30.6628C107.455 31.047 107.394 31.357 107.394 32.2466V48.6292C107.394 52.3609 105.196 55.2355 100.819 55.2355C96.4351 55.2355 94.2244 52.3609 94.2244 48.6292V32.249C94.2244 31.3639 94.1843 31.0471 94.8191 30.6628C95.4477 30.286 95.9774 30.1932 97.0051 30.0437C97.0051 30.0437 97.0134 30.039 97.0195 30.039C97.1305 30.0211 97.1099 29.6419 97.0051 29.6419H81.1777C81.0591 29.6419 81.0853 30.0211 81.1777 30.039C81.1901 30.039 81.209 30.0437 81.209 30.0437C81.7853 30.0796 82.1841 30.1159 82.5308 30.4105C83.0624 30.8366 83.1544 31.3577 83.1544 32.2443L83.1471 48.3517C83.1471 56.1142 87.5241 62.7093 100.819 62.7093C114.095 62.7093 118.47 56.1143 118.47 48.3517V32.2443C118.47 31.3577 118.432 31.047 119.067 30.6627C119.708 30.286 120.349 30.2186 121.383 30.0437C121.383 30.0437 121.394 30.039 121.407 30.039C121.514 30.021 121.494 29.6419 121.383 29.6419L104.62 29.6372ZM14.5535 35.6994C14.5535 35.6994 14.9638 35.7648 15.3552 35.7648H19.7538C23.1052 35.7648 25.0649 36.2717 25.0649 39.2245C25.0649 41.1353 23.8448 42.8502 19.891 42.8502H15.3552C14.9638 42.8502 14.5656 42.8992 14.5656 42.8992C14.5656 42.8992 14.6185 42.5345 14.6185 42.1354V36.4773C14.6185 36.0363 14.5535 35.6994 14.5535 35.6994ZM14.5656 47.8215C14.5656 47.8215 14.9615 47.8753 15.3529 47.8753H19.0773C22.045 47.8753 25.6692 47.8768 25.6692 51.8583C25.6692 54.8066 23.0725 55.8483 19.5734 55.8483H15.353C14.9554 55.8483 14.5753 55.902 14.5753 55.902C14.5753 55.902 14.6187 55.514 14.6187 55.1358V48.5854C14.6187 48.1473 14.5656 47.8215 14.5656 47.8215ZM108.992 76.642C102.356 76.642 97.9417 81.8746 97.9417 87.2898C97.9417 92.9965 102.355 97.4424 108.532 97.4424C115.187 97.4424 119.571 92.209 119.571 86.7922C119.571 81.0795 115.188 76.642 108.992 76.642ZM52.762 76.7308C52.5018 76.7308 52.2424 76.7853 52.2131 76.8966C51.4011 79.3531 50.3293 82.1031 49.3216 84.7434L47.6002 89.3456C45.2582 95.5517 44.6782 95.9913 44.3501 96.244C43.8663 96.561 43.2777 96.7492 42.3086 96.8374C42.1452 96.8792 42.2099 97.2485 42.3086 97.2485H48.9606C49.0607 97.2485 49.0916 96.8792 48.9606 96.8374C47.5677 96.7222 47.1164 96.4317 47.1164 95.8726C47.1164 95.1998 47.4627 93.6563 48.9943 89.5956H55.7185C57.5706 94.1301 57.9913 95.5514 57.9913 96.0852C57.9913 96.5607 57.3763 96.7492 56.3686 96.8374C56.2377 96.8793 56.27 97.2486 56.3686 97.2486H63.4853C63.5839 97.2486 63.6085 96.8793 63.4853 96.8374C62.5762 96.7492 62.0877 96.6519 61.5375 96.3095C61.0845 96.0239 60.6544 95.5518 58.1212 89.3456L56.2698 84.7435C55.1388 81.8744 54.2943 79.6327 53.3205 76.8967C53.2843 76.7853 53.0222 76.7308 52.762 76.7308ZM0.959493 76.8359C0.857799 76.8359 0.859147 77.2086 0.993199 77.24C2.25667 77.3731 3.10388 77.5537 3.49217 77.775C3.88662 77.9649 4.1735 78.5344 4.1735 84.7435V89.341C4.1735 95.544 3.88662 96.0825 3.49217 96.2978C3.10388 96.5236 2.25667 96.7163 0.993199 96.8374C0.859147 96.8658 0.857804 97.2486 0.959493 97.2486H9.72777C9.82484 97.2486 9.85652 96.8658 9.69166 96.8374C8.43126 96.7163 7.61709 96.5236 7.2288 96.2978C6.80354 96.0825 6.51136 95.5441 6.51136 89.341V84.7435C6.51136 78.5345 6.80354 77.9649 7.2288 77.775C7.61709 77.5537 8.43132 77.3731 9.69166 77.24C9.85652 77.2086 9.82485 76.8359 9.72777 76.8359H0.959493ZM17.0679 76.8359C16.9708 76.8359 16.9367 77.2101 17.1016 77.24C18.3636 77.3731 18.9195 77.5537 19.3093 77.775C19.7361 77.9649 19.9906 78.5344 19.9906 84.7435V89.3457C19.9906 95.5518 19.7361 96.0837 19.3093 96.3095C18.9195 96.5293 18.3635 96.7239 17.1016 96.8375C16.9367 96.8793 16.9708 97.2486 17.0679 97.2486C18.4978 97.2486 19.991 97.1926 21.1945 97.1926C22.3948 97.1926 24.6994 97.2486 26.1324 97.2486C30.2911 97.2486 32.761 96.3098 34.9921 94.13C36.9428 92.2089 38.081 89.5337 38.081 86.7948C38.081 81.0805 33.3744 76.836 26.8474 76.836C25.3806 76.836 22.3948 76.8968 21.1946 76.8968C19.9912 76.8968 18.4978 76.8359 17.0679 76.8359ZM68.2565 76.8359C68.1518 76.8359 68.1245 77.2116 68.2878 77.24C69.5513 77.3731 70.1066 77.5537 70.498 77.775C70.9171 77.9649 71.1817 78.5344 71.1817 84.7435V89.3457C71.1817 95.5518 70.9171 96.0837 70.498 96.3095C70.1066 96.5278 69.5513 96.7224 68.2878 96.8375C68.1245 96.8793 68.1518 97.2486 68.2565 97.2486H76.5072C76.6043 97.2486 76.604 96.8793 76.4422 96.8375C75.1711 96.7224 74.6141 96.5278 74.2273 96.3095C73.8421 96.0838 73.5556 95.5518 73.5556 89.3457V87.3881H85.822V89.3457C85.822 95.5518 85.5351 96.0837 85.1407 96.3095C84.7555 96.5278 84.2074 96.7224 82.9378 96.8375C82.7745 96.8793 82.7755 97.2486 82.9065 97.2486H91.1234C91.2544 97.2486 91.2541 96.8793 91.0969 96.8375C89.8211 96.7224 89.2778 96.5278 88.8771 96.3095C88.4919 96.0838 88.1982 95.5518 88.1982 89.3457V84.7435C88.1982 78.5345 88.4919 77.9649 88.8771 77.775C89.2778 77.5537 89.8211 77.3731 91.0969 77.24C91.2541 77.2116 91.2544 76.8359 91.1234 76.8359H82.9065C82.7755 76.8359 82.7745 77.2116 82.9378 77.24C84.2074 77.3731 84.7555 77.5537 85.1407 77.775C85.5351 77.9649 85.822 78.5344 85.822 84.7435V86.2176H73.5556V84.7435C73.5556 78.5345 73.8421 77.9649 74.2273 77.775C74.614 77.5537 75.171 77.3731 76.4422 77.24C76.604 77.2116 76.6043 76.8359 76.5072 76.8359H68.2565ZM108.369 77.8077C113.566 77.8077 116.87 82.5683 116.87 87.701C116.87 91.7706 114.959 96.2767 109.182 96.2767C103.98 96.2767 100.643 91.5242 100.643 86.3811C100.643 82.3175 102.553 77.8077 108.369 77.8077ZM25.8407 77.8731C32.0425 77.8731 35.3866 82.5405 35.3866 87.3623C35.3866 93.2858 32.4596 96.209 26.1007 96.209C24.4058 96.209 23.6663 95.9889 23.0792 95.3984C22.6586 94.9573 22.3666 93.3808 22.3666 89.3457V84.6455C22.3666 80.048 22.6586 78.6577 22.8481 78.4034C23.0792 78.1283 23.8901 77.8731 25.8407 77.8731ZM52.338 80.7091L55.2294 88.299H49.485L52.338 80.7091Z" fill="#0076C6"/>
</g>
<defs>
<linearGradient id="paint0_linear_81_11" x1="191.461" y1="33.4942" x2="227.057" y2="63.8504" gradientUnits="userSpaceOnUse">
<stop stop-color="#5A9FD4"/>
<stop offset="1" stop-color="#306998"/>
</linearGradient>
<linearGradient id="paint1_linear_81_11" x1="240.449" y1="82.7203" x2="227.684" y2="64.8189" gradientUnits="userSpaceOnUse">
<stop stop-color="#FFD43B"/>
<stop offset="1" stop-color="#FFE873"/>
</linearGradient>
<radialGradient id="paint2_radial_81_11" cx="0" cy="0" r="1" gradientUnits="userSpaceOnUse" gradientTransform="translate(225.053 98.6333) rotate(-90) scale(4.01145 17.6337)">
<stop stop-color="#B8B8B8" stop-opacity="0.498"/>
<stop offset="1" stop-color="#7F7F7F" stop-opacity="0"/>
</radialGradient>
<clipPath id="clip0_81_11">
<rect width="122" height="69" fill="white" transform="translate(0 29)"/>
</clipPath>
</defs>
</svg>
